# Hierarchical Translation and Rotation (.htr) file
# Generated by EVaRT
[Header]
FileType htr
DataType HTRS
FileVersion 1
NumSegments 23
NumFrames 5
DataFrameRate 120
EulerRotationOrder ZYX
CalibrationUnits mm
RotationUnits Degrees
GlobalAxisofGravity Y
BoneLengthAxis Y
ScaleFactor 1
[SegmentNames&Hierarchy]
#CHILD            PARENT
DaveRoot          GLOBAL
Spine1            DaveRoot
Spine2            Spine1
Spine3            Spine2
Spine4            Spine3
Neck              Spine4
Head              Neck
LClavicle         Spine4
LUpperArm         LClavicle
LLowerArm         LUpperArm
LHand             LLowerArm
RClavicle         Spine4
RUpperArm         RClavicle
RLowerArm         RUpperArm
RHand             RLowerArm
RUpperLeg         DaveRoot
RLowerLeg         RUpperLeg
RFoot             RLowerLeg
RToes             RFoot
LUpperLeg         DaveRoot
LLowerLeg         LUpperLeg
LFoot             LLowerLeg
LToes             LFoot
[BasePosition]
#SegmentName      Tx   Ty   Tz   Rx   Ry   Rz   BoneLength
DaveRoot          30.502683	1014.050144	-392.030244	16.346492	-1.112010	-1.464339	100.000000
Spine1            0.000000	100.000000	0.000000	-16.708095	0.289044	-0.213389	100.000000
Spine2            0.000000	100.000000	0.000000	4.757952	0.249599	-0.116624	100.000000
Spine3            0.000000	100.000000	0.000000	11.084253	0.260929	-0.088411	100.000000
Spine4            0.000000	100.000000	0.000000	12.228282	1.332274	1.443083	100.000000
Neck              0.000000	100.000000	0.000000	10.147668	18.171820	1.381874	80.000000
Head              0.000000	80.000000	0.000000	-46.518491	-1.401195	-5.185409	200.000000
LClavicle         0.000000	100.000000	0.000000	-3.689620	-1.992124	-101.831237	200.000000
LUpperArm         0.000000	200.000000	0.000000	-0.284445	-3.207106	1.762499	300.000000
LLowerArm         0.000000	300.000000	0.000000	9.834184	2.175812	1.895763	200.000000
LHand             0.000000	200.000000	0.000000	-2.090742	-1.768569	8.793625	120.000000
RClavicle         0.000000	100.000000	0.000000	-0.558465	-3.870894	107.984856	200.000000
RUpperArm         0.000000	200.000000	0.000000	6.860362	-6.098052	-15.811317	300.000000
RLowerArm         0.000000	300.000000	0.000000	5.698581	-3.682026	-7.348670	200.000000
RHand             0.000000	200.000000	0.000000	-4.626921	6.468423	-3.971303	120.000000
RUpperLeg         -115.911102	-10.000000	31.058285	22.974686	25.481186	-170.503396	530.000000
RLowerLeg         0.000000	530.000000	0.000000	-7.725558	0.479387	-2.520024	460.000000
RFoot             0.000000	460.000000	0.000000	81.786251	-5.006629	-0.462861	130.000000
RToes             0.000000	130.000000	0.000000	20.181248	0.005479	-0.002881	100.000000
LUpperLeg         115.911102	-10.000000	31.058285	21.582405	10.065134	-177.228489	530.000000
LLowerLeg         0.000000	530.000000	0.000000	-4.243927	-3.275937	3.046484	460.000000
LFoot             0.000000	460.000000	0.000000	77.706358	-14.203819	16.055021	130.000000
LToes             0.000000	130.000000	0.000000	27.168776	-0.000000	-0.000086	100.000000
#Beginning of Data.
[DaveRoot]
#Fr	Tx	Ty	Tz	Rx	Ry	Rz	SF
720	-929.374909	-37.315524	248.555677	-21.001838	52.827423	-26.928341	1.000000	
721	-925.978881	-37.439087	250.147712	-21.324703	53.421998	-27.336675	1.000000	
722	-922.369696	-36.763608	251.786909	-21.793736	53.964006	-27.860373	1.000000	
723	-919.116701	-37.179518	253.223902	-21.935895	54.497598	-28.148012	1.000000	
724	-915.481115	-36.359046	254.825083	-22.501611	54.989851	-28.742892	1.000000	
[Spine1]
#Fr	Tx	Ty	Tz	Rx	Ry	Rz	SF
720	0.000000	0.000000	0.000000	1.688204	-0.085434	-0.826088	1.000000	
721	0.000000	0.000000	0.000000	1.421447	-0.023561	-0.855960	1.000000	
722	0.000000	0.000000	0.000000	1.728033	-0.171997	-0.859447	1.000000	
723	0.000000	0.000000	0.000000	1.287255	-0.041076	-0.907969	1.000000	
724	0.000000	0.000000	0.000000	1.794713	-0.266619	-0.896190	1.000000	
[Spine2]
#Fr	Tx	Ty	Tz	Rx	Ry	Rz	SF
720	0.000000	0.000000	0.000000	1.688204	-0.085434	-0.826088	1.000000	
721	0.000000	0.000000	0.000000	1.421447	-0.023561	-0.855960	1.000000	
722	0.000000	0.000000	0.000000	1.728033	-0.171997	-0.859447	1.000000	
723	0.000000	0.000000	0.000000	1.287255	-0.041076	-0.907969	1.000000	
724	0.000000	0.000000	0.000000	1.794713	-0.266619	-0.896190	1.000000	
[Spine3]
#Fr	Tx	Ty	Tz	Rx	Ry	Rz	SF
720	0.000000	0.000000	0.000000	1.688204	-0.085434	-0.826088	1.000000	
721	0.000000	0.000000	0.000000	1.421447	-0.023561	-0.855960	1.000000	
722	0.000000	0.000000	0.000000	1.728033	-0.171997	-0.859447	1.000000	
723	0.000000	0.000000	0.000000	1.287255	-0.041076	-0.907969	1.000000	
724	0.000000	0.000000	0.000000	1.794713	-0.266619	-0.896190	1.000000	
[Spine4]
#Fr	Tx	Ty	Tz	Rx	Ry	Rz	SF
720	0.000000	0.000000	0.000000	1.688204	-0.085434	-0.826088	1.000000	
721	0.000000	0.000000	0.000000	1.421447	-0.023561	-0.855960	1.000000	
722	0.000000	0.000000	0.000000	1.728033	-0.171997	-0.859447	1.000000	
723	0.000000	0.000000	0.000000	1.287255	-0.041076	-0.907969	1.000000	
724	0.000000	0.000000	0.000000	1.794713	-0.266619	-0.896190	1.000000	
[Neck]
#Fr	Tx	Ty	Tz	Rx	Ry	Rz	SF
720	0.000000	0.000000	0.000000	-0.354353	8.360653	-1.947769	1.000000	
721	0.000000	0.000000	0.000000	0.670896	8.318148	-1.299471	1.000000	
722	0.000000	0.000000	0.000000	-0.708092	8.235940	-2.184574	1.000000	
723	0.000000	0.000000	0.000000	0.932452	8.191415	-1.114641	1.000000	
724	0.000000	0.000000	0.000000	-1.247592	8.056463	-2.484055	1.000000	
[Head]
#Fr	Tx	Ty	Tz	Rx	Ry	Rz	SF
720	0.000000	0.000000	0.000000	-0.354353	8.360653	-1.947769	1.000000	
721	0.000000	0.000000	0.000000	0.670896	8.318148	-1.299471	1.000000	
722	0.000000	0.000000	0.000000	-0.708092	8.235940	-2.184574	1.000000	
723	0.000000	0.000000	0.000000	0.932452	8.191415	-1.114641	1.000000	
724	0.000000	0.000000	0.000000	-1.247592	8.056463	-2.484055	1.000000	
[LClavicle]
#Fr	Tx	Ty	Tz	Rx	Ry	Rz	SF
720	0.000000	0.000000	0.000000	11.600031	1.029304	-7.630865	1.000000	
721	0.000000	0.000000	0.000000	14.881512	1.055255	-6.594044	1.000000	
722	0.000000	0.000000	0.000000	10.750118	0.925925	-7.494508	1.000000	
723	0.000000	0.000000	0.000000	16.040198	0.974983	-6.016587	1.000000	
724	0.000000	0.000000	0.000000	9.318987	0.800708	-7.497104	1.000000	
[LUpperArm]
#Fr	Tx	Ty	Tz	Rx	Ry	Rz	SF
720	0.000000	0.000000	0.000000	25.473240	12.075766	-40.229173	1.000000	
721	0.000000	0.000000	0.000000	20.248465	9.783200	-42.665275	1.000000	
722	0.000000	0.000000	0.000000	26.862389	12.651403	-40.035976	1.000000	
723	0.000000	0.000000	0.000000	18.374690	8.958685	-43.691729	1.000000	
724	0.000000	0.000000	0.000000	29.124111	13.450681	-39.595368	1.000000	
[LLowerArm]
#Fr	Tx	Ty	Tz	Rx	Ry	Rz	SF
720	0.000000	0.000000	0.000000	27.029806	0.000000	0.000000	1.000000	
721	0.000000	0.000000	0.000000	30.437509	0.000000	0.000000	1.000000	
722	0.000000	0.000000	0.000000	26.101653	0.000000	0.000000	1.000000	
723	0.000000	0.000000	0.000000	31.905433	0.000000	0.000000	1.000000	
724	0.000000	0.000000	0.000000	24.930170	0.000000	0.000000	1.000000	
[LHand]
#Fr	Tx	Ty	Tz	Rx	Ry	Rz	SF
720	0.000000	0.000000	0.000000	9.623636	-0.000000	-0.000000	1.000000	
721	0.000000	0.000000	0.000000	8.006137	-0.000000	-0.000000	1.000000	
722	0.000000	0.000000	0.000000	10.284187	-0.000000	-0.000000	1.000000	
723	0.000000	0.000000	0.000000	7.435611	-0.000000	-0.000000	1.000000	
724	0.000000	0.000000	0.000000	10.959757	-0.000000	-0.000000	1.000000	
[RClavicle]
#Fr	Tx	Ty	Tz	Rx	Ry	Rz	SF
720	0.000000	0.000000	0.000000	8.511008	-0.017152	-0.071448	1.000000	
721	0.000000	0.000000	0.000000	9.572632	0.036230	-0.400891	1.000000	
722	0.000000	0.000000	0.000000	8.104882	-0.051371	0.174662	1.000000	
723	0.000000	0.000000	0.000000	9.891218	0.041538	-0.424275	1.000000	
724	0.000000	0.000000	0.000000	7.667101	-0.072569	0.352984	1.000000	
[RUpperArm]
#Fr	Tx	Ty	Tz	Rx	Ry	Rz	SF
720	0.000000	0.000000	0.000000	34.057124	27.385773	15.912139	1.000000	
721	0.000000	0.000000	0.000000	31.777770	27.259993	16.608966	1.000000	
722	0.000000	0.000000	0.000000	34.586431	27.441104	15.554726	1.000000	
723	0.000000	0.000000	0.000000	30.875671	27.248977	16.724826	1.000000	
724	0.000000	0.000000	0.000000	35.401390	27.666367	15.303770	1.000000	
[RLowerArm]
#Fr	Tx	Ty	Tz	Rx	Ry	Rz	SF
720	0.000000	0.000000	0.000000	33.798483	0.000000	0.000000	1.000000	
721	0.000000	0.000000	0.000000	35.408007	0.000000	0.000000	1.000000	
722	0.000000	0.000000	0.000000	33.534776	0.000000	0.000000	1.000000	
723	0.000000	0.000000	0.000000	36.133836	0.000000	0.000000	1.000000	
724	0.000000	0.000000	0.000000	33.206309	0.000000	0.000000	1.000000	
[RHand]
#Fr	Tx	Ty	Tz	Rx	Ry	Rz	SF
720	0.000000	0.000000	0.000000	21.752137	39.948072	8.401127	1.000000	
721	0.000000	0.000000	0.000000	20.129381	39.648797	7.677261	1.000000	
722	0.000000	0.000000	0.000000	22.137515	39.910999	8.587315	1.000000	
723	0.000000	0.000000	0.000000	19.714608	39.484388	7.550806	1.000000	
724	0.000000	0.000000	0.000000	22.751185	39.907275	8.925030	1.000000	
[RUpperLeg]
#Fr	Tx	Ty	Tz	Rx	Ry	Rz	SF
720	0.000000	0.000000	0.000000	19.675293	-23.994412	-6.589978	1.000000	
721	0.000000	0.000000	0.000000	19.934820	-23.733062	-6.084650	1.000000	
722	0.000000	0.000000	0.000000	19.981071	-23.460146	-5.491520	1.000000	
723	0.000000	0.000000	0.000000	20.386428	-23.262244	-5.030935	1.000000	
724	0.000000	0.000000	0.000000	20.319863	-23.013387	-4.413478	1.000000	
[RLowerLeg]
#Fr	Tx	Ty	Tz	Rx	Ry	Rz	SF
720	0.000000	0.000000	0.000000	-57.636050	-0.000000	0.000000	1.000000	
721	0.000000	0.000000	0.000000	-57.345247	-0.000000	0.000000	1.000000	
722	0.000000	0.000000	0.000000	-56.725017	-0.000000	0.000000	1.000000	
723	0.000000	0.000000	0.000000	-56.265020	-0.000000	0.000000	1.000000	
724	0.000000	0.000000	0.000000	-55.292075	0.000000	0.000000	1.000000	
[RFoot]
#Fr	Tx	Ty	Tz	Rx	Ry	Rz	SF
720	0.000000	0.000000	0.000000	-9.075891	-2.808086	-22.992681	1.000000	
721	0.000000	0.000000	0.000000	-7.597208	-2.847901	-24.065995	1.000000	
722	0.000000	0.000000	0.000000	-6.157496	-2.644923	-24.957811	1.000000	
723	0.000000	0.000000	0.000000	-4.647697	-2.188771	-25.653074	1.000000	
724	0.000000	0.000000	0.000000	-3.490885	-1.513218	-26.153823	1.000000	
[RToes]
#Fr	Tx	Ty	Tz	Rx	Ry	Rz	SF
720	0.000000	0.000000	0.000000	0.491440	-0.000000	0.000000	1.000000	
721	0.000000	0.000000	0.000000	0.358838	-0.000000	0.000000	1.000000	
722	0.000000	0.000000	0.000000	-0.086128	-0.000000	0.000000	1.000000	
723	0.000000	0.000000	0.000000	-0.676197	-0.000000	0.000000	1.000000	
724	0.000000	0.000000	0.000000	-1.297286	-0.000000	0.000000	1.000000	
[LUpperLeg]
#Fr	Tx	Ty	Tz	Rx	Ry	Rz	SF
720	0.000000	0.000000	0.000000	5.955758	-5.208421	-2.402000	1.000000	
721	0.000000	0.000000	0.000000	5.782278	-5.388052	-2.636055	1.000000	
722	0.000000	0.000000	0.000000	5.415656	-5.474138	-2.804048	1.000000	
723	0.000000	0.000000	0.000000	5.391107	-5.717422	-3.043627	1.000000	
724	0.000000	0.000000	0.000000	4.974986	-5.683986	-3.161518	1.000000	
[LLowerLeg]
#Fr	Tx	Ty	Tz	Rx	Ry	Rz	SF
720	0.000000	0.000000	0.000000	-16.992070	-0.000000	-0.000000	1.000000	
721	0.000000	0.000000	0.000000	-16.865955	-0.000000	-0.000000	1.000000	
722	0.000000	0.000000	0.000000	-16.509892	-0.000000	-0.000000	1.000000	
723	0.000000	0.000000	0.000000	-16.497258	-0.000000	-0.000000	1.000000	
724	0.000000	0.000000	0.000000	-16.146715	-0.000000	-0.000000	1.000000	
[LFoot]
#Fr	Tx	Ty	Tz	Rx	Ry	Rz	SF
720	0.000000	0.000000	0.000000	7.976314	0.196887	-5.679856	1.000000	
721	0.000000	0.000000	0.000000	8.186754	0.861997	-6.119330	1.000000	
722	0.000000	0.000000	0.000000	8.282964	1.120341	-6.641471	1.000000	
723	0.000000	0.000000	0.000000	8.478288	1.965857	-6.997868	1.000000	
724	0.000000	0.000000	0.000000	8.535626	2.083146	-7.479094	1.000000	
[LToes]
#Fr	Tx	Ty	Tz	Rx	Ry	Rz	SF
720	0.000000	0.000000	0.000000	-6.931965	0.000000	-0.000000	1.000000	
721	0.000000	0.000000	0.000000	-6.522348	0.000000	-0.000000	1.000000	
722	0.000000	0.000000	0.000000	-6.428857	0.000000	-0.000000	1.000000	
723	0.000000	0.000000	0.000000	-5.834601	0.000000	-0.000000	1.000000	
724	0.000000	0.000000	0.000000	-5.865015	0.000000	-0.000000	1.000000	
